<svg width="1200" height="630" viewBox="0 0 1200 630" fill="none" xmlns="http://www.w3.org/2000/svg">
  <!-- Cartback Open Graph Image - 1200x630 (Facebook/LinkedIn) -->
  
  <defs>
    <linearGradient id="bgGradient" x1="0%" y1="0%" x2="100%" y2="100%">
      <stop offset="0%" stop-color="#25D366" />
      <stop offset="100%" stop-color="#128C7E" />
    </linearGradient>
  </defs>
  
  <!-- Background -->
  <rect width="1200" height="630" fill="url(#bgGradient)" />
  
  <!-- Padrão decorativo sutil -->
  <g opacity="0.1">
    <circle cx="100" cy="100" r="200" stroke="white" stroke-width="2" fill="none" />
    <circle cx="1100" cy="530" r="250" stroke="white" stroke-width="2" fill="none" />
  </g>
  
  <!-- Ícone -->
  <g transform="translate(400, 140)">
    <rect width="160" height="160" rx="36" fill="white" fill-opacity="0.95" />
    <g stroke="#128C7E" stroke-width="7" stroke-linecap="round" stroke-linejoin="round" fill="none" transform="translate(0, 0)">
      <path d="M38 56 L48 56 L62 88 L102 88 L116 62 L68 62" />
      <circle cx="68" cy="104" r="10" fill="#128C7E" />
      <circle cx="96" cy="104" r="10" fill="#128C7E" />
      <path d="M102 36 C86 30 70 36 62 52" />
      <path d="M62 52 L72 42" />
      <path d="M62 52 L52 44" />
    </g>
  </g>
  
  <!-- Wordmark -->
  <text x="600" y="380" text-anchor="middle" font-family="Inter, -apple-system, BlinkMacSystemFont, 'Segoe UI', Roboto, sans-serif" font-size="72" font-weight="700" fill="white" letter-spacing="-1">
    cartback
  </text>
  
  <!-- Tagline -->
  <text x="600" y="440" text-anchor="middle" font-family="Inter, -apple-system, BlinkMacSystemFont, 'Segoe UI', Roboto, sans-serif" font-size="28" font-weight="400" fill="white" opacity="0.9">
    Recuperação de carrinho abandonado via WhatsApp
  </text>
  
  <!-- URL -->
  <text x="600" y="560" text-anchor="middle" font-family="Inter, -apple-system, BlinkMacSystemFont, 'Segoe UI', Roboto, sans-serif" font-size="24" font-weight="500" fill="white" opacity="0.7">
    cartback.app
  </text>
</svg>
